<?xml version="1.0" standalone="no"?>
<!DOCTYPE svg PUBLIC "-//W3C//DTD SVG 20010904//EN"
 "http://www.w3.org/TR/2001/REC-SVG-20010904/DTD/svg10.dtd">
<svg version="1.0" xmlns="http://www.w3.org/2000/svg"
 width="856.000000pt" height="418.000000pt" viewBox="0 0 856.000000 418.000000"
 preserveAspectRatio="xMidYMid meet">

<g transform="translate(0.000000,418.000000) scale(0.100000,-0.100000)"
fill="#000000" stroke="none">
<path d="M1730 2696 c-185 -54 -295 -179 -340 -387 -22 -98 28 -262 110 -361
40 -48 157 -118 199 -118 48 0 91 46 91 97 -1 46 -12 62 -71 96 -74 43 -123
113 -135 194 -10 67 -3 75 45 56 34 -13 47 -14 86 -3 48 13 90 54 101 96 7 27
1 101 -10 127 -7 15 -2 17 42 17 87 0 162 -42 215 -119 40 -59 55 -70 95 -71
44 0 68 14 87 50 20 39 19 58 -7 107 -45 84 -139 164 -239 204 -67 27 -204 34
-269 15z"/>
<path d="M2780 2295 l0 -196 28 3 c26 3 27 5 32 83 l5 80 90 0 90 0 3 -83 3
-83 27 3 27 3 3 187 c2 179 2 187 -18 193 -33 11 -40 -3 -40 -81 l0 -74 -95 0
c-108 0 -102 -5 -107 100 -3 48 -6 55 -25 58 l-23 3 0 -196z"/>
<path d="M3300 2479 c-74 -31 -130 -110 -130 -184 0 -67 51 -149 112 -181 35
-18 136 -18 179 0 68 28 119 108 119 184 0 54 -38 122 -88 156 -34 24 -55 31
-105 33 -34 2 -73 -2 -87 -8z m162 -75 c53 -38 72 -115 44 -170 -20 -36 -91
-84 -128 -84 -31 0 -97 30 -116 52 -6 8 -16 34 -23 59 -10 39 -10 50 8 90 26
58 68 81 139 76 29 -2 61 -11 76 -23z"/>
<path d="M3705 2480 c-41 -16 -70 -59 -69 -101 2 -53 21 -72 114 -109 78 -32
95 -46 83 -75 -6 -17 -54 -45 -75 -45 -8 0 -31 9 -52 19 -31 16 -42 18 -57 8
-28 -17 -23 -32 17 -56 26 -15 52 -21 99 -21 58 0 66 3 99 34 29 27 36 41 36
71 0 58 -30 90 -108 115 -88 29 -112 59 -76 94 20 20 70 20 108 1 32 -17 56
-6 56 25 0 37 -117 64 -175 40z"/>
<path d="M3985 2479 c-3 -8 -4 -96 -3 -194 l3 -180 25 0 c24 0 25 3 28 68 l3
67 60 0 c71 0 112 19 139 63 26 41 25 77 -1 122 -29 48 -42 53 -153 61 -78 6
-97 4 -101 -7z m172 -55 c32 -9 48 -55 31 -91 -12 -26 -18 -28 -81 -31 l-67
-3 0 59 c0 32 3 62 7 65 8 8 80 9 110 1z"/>
<path d="M4353 2483 c-10 -4 -13 -50 -13 -188 0 -175 1 -184 20 -190 11 -3 24
-3 30 0 6 4 10 77 10 189 0 167 -2 184 -17 188 -10 3 -24 3 -30 1z"/>
<path d="M4891 2477 c-6 -8 -29 -63 -52 -123 -42 -113 -73 -186 -90 -217 -13
-24 -3 -37 27 -37 21 0 29 9 46 50 l21 51 86 -3 85 -3 17 -45 c16 -44 35 -57
64 -46 10 4 4 28 -26 108 -22 57 -43 112 -48 123 -5 11 -19 45 -31 75 -12 30
-27 61 -32 68 -14 16 -53 15 -67 -1z m64 -140 c4 -15 11 -30 16 -33 5 -3 9
-14 9 -25 0 -16 -7 -19 -55 -19 -30 0 -55 4 -55 10 0 8 16 47 43 107 10 22 11
22 23 5 7 -10 16 -31 19 -45z"/>
<path d="M4470 2456 c0 -23 4 -25 53 -28 l52 -3 3 -157 3 -158 29 0 29 0 3
158 3 157 53 3 c48 3 52 5 52 28 l0 24 -140 0 -140 0 0 -24z"/>
<path d="M5180 2295 l0 -185 115 0 115 0 0 25 c0 25 -1 25 -90 25 l-90 0 0
160 0 160 -25 0 -25 0 0 -185z"/>
<path d="M1915 2150 c-41 -17 -67 -55 -63 -96 2 -32 10 -43 48 -71 121 -89
160 -147 160 -236 0 -43 -2 -48 -17 -42 -43 17 -104 17 -144 0 -56 -26 -82
-72 -77 -138 2 -28 8 -60 12 -69 13 -28 -93 -25 -152 4 -42 22 -102 84 -115
120 -10 27 -65 51 -103 44 -51 -10 -96 -77 -75 -113 9 -15 10 -13 11 14 0 34
49 93 77 93 26 0 68 -31 93 -68 58 -87 109 -119 204 -127 77 -7 92 1 71 41 -8
16 -15 46 -15 67 0 100 108 166 198 121 18 -8 36 -13 42 -9 12 8 13 89 1 113
-4 9 -16 34 -27 56 -10 21 -30 49 -44 62 -49 45 -75 66 -101 80 -29 14 -43 51
-34 87 6 21 63 67 85 67 20 0 127 -67 161 -101 41 -41 99 -129 105 -157 4 -18
11 -35 15 -38 5 -3 9 -58 10 -122 1 -98 3 -111 11 -77 14 57 3 170 -22 237
-22 60 -92 158 -139 195 -39 31 -121 73 -140 72 -9 0 -25 -4 -36 -9z"/>
<path d="M2780 1695 l0 -195 73 0 c93 0 139 13 184 53 44 38 63 82 63 141 0
126 -90 196 -252 196 l-68 0 0 -195z m213 101 c45 -35 65 -92 47 -138 -27 -68
-75 -98 -155 -98 l-45 0 0 128 c0 71 3 132 8 136 15 17 111 -2 145 -28z"/>
<path d="M3546 1875 c-9 -24 -7 -348 2 -363 6 -9 38 -12 123 -10 l114 3 0 25
c0 24 -2 25 -90 30 l-90 5 -5 160 c-5 154 -6 160 -26 163 -13 2 -24 -4 -28
-13z"/>
<path d="M4101 1877 c-48 -18 -71 -51 -71 -102 0 -55 29 -85 107 -109 70 -22
83 -32 83 -61 0 -49 -70 -69 -126 -36 -37 22 -37 22 -57 3 -24 -25 -16 -39 37
-63 77 -35 159 -17 196 43 43 71 13 125 -94 166 -75 29 -98 51 -80 79 17 27
61 34 105 16 41 -16 69 -7 69 23 0 35 -113 62 -169 41z"/>
<path d="M4449 1843 c-11 -26 -24 -56 -29 -65 -6 -10 -10 -23 -10 -29 0 -6 -7
-25 -15 -42 -23 -52 -75 -187 -75 -197 0 -6 13 -10 29 -10 26 0 32 6 47 45
l17 45 84 0 c82 0 84 -1 94 -27 6 -16 14 -35 19 -43 8 -18 70 -27 70 -10 0 10
-35 98 -66 165 -7 17 -29 71 -47 120 -32 85 -36 90 -66 93 -29 3 -33 0 -52
-45z m83 -118 c10 -26 17 -54 14 -62 -6 -15 -91 -19 -100 -4 -8 13 44 123 56
119 6 -2 19 -26 30 -53z"/>
<path d="M5446 1875 c-13 -13 -129 -300 -142 -350 -6 -25 -5 -26 22 -23 22 2
31 10 39 33 18 53 21 55 109 55 l82 0 22 -45 c17 -36 27 -45 47 -45 30 0 32
16 6 73 -10 23 -42 101 -71 174 -45 112 -56 132 -77 136 -13 2 -30 -1 -37 -8z
m63 -155 c12 -30 21 -58 21 -62 0 -5 -25 -8 -55 -8 -30 0 -55 3 -55 8 0 8 39
112 47 125 8 14 20 -4 42 -63z"/>
<path d="M3190 1695 l0 -185 136 0 c135 0 135 0 132 23 -3 21 -8 22 -105 25
l-103 3 0 59 0 60 80 0 c79 0 80 0 80 25 0 25 -1 25 -80 25 l-80 0 0 50 0 50
100 0 100 0 0 25 0 25 -130 0 -130 0 0 -185z"/>
<path d="M4745 1868 c-3 -8 -4 -92 -3 -188 l3 -175 120 0 120 0 0 25 c0 25 -2
25 -87 28 l-87 3 -3 157 -3 157 -28 3 c-16 2 -29 -2 -32 -10z"/>
<path d="M4970 1871 c0 -12 35 -112 56 -158 8 -17 14 -37 14 -45 0 -8 4 -18 9
-23 4 -6 17 -35 27 -65 24 -73 32 -82 68 -78 29 3 33 9 60 78 28 74 49 126 66
165 48 108 51 135 14 135 -28 0 -32 -7 -99 -182 -20 -54 -41 -98 -45 -98 -4 0
-32 62 -62 138 -50 125 -57 137 -81 140 -15 2 -27 -1 -27 -7z"/>
<path d="M5720 1690 l0 -190 78 0 c106 0 142 12 190 64 46 50 58 92 47 164 -6
39 -15 55 -54 93 -53 51 -79 59 -193 59 l-68 0 0 -190z m194 115 c41 -20 66
-63 66 -115 0 -83 -54 -130 -149 -130 l-51 0 0 130 0 130 51 0 c28 0 65 -7 83
-15z"/>
<path d="M6210 1861 c-91 -49 -132 -167 -87 -256 20 -41 72 -85 120 -101 74
-25 145 -7 203 51 47 48 59 86 52 165 -6 61 -42 110 -101 139 -56 27 -139 28
-187 2z m157 -52 c51 -24 73 -61 73 -119 0 -56 -23 -96 -70 -120 -49 -25 -96
-25 -137 0 -47 28 -67 65 -67 121 0 58 23 95 75 121 45 23 73 23 126 -3z"/>
<path d="M6594 1867 c-2 -7 -3 -91 -2 -187 l3 -175 25 0 c24 0 25 3 28 68 l3
67 43 0 c43 0 44 -1 82 -67 32 -55 45 -69 67 -71 36 -4 35 10 -9 82 l-35 59
33 34 c27 28 33 42 33 78 0 48 -26 92 -66 112 -33 17 -198 17 -205 0z m202
-72 c20 -30 11 -81 -17 -96 -11 -5 -43 -9 -72 -7 l-52 3 -3 63 -3 62 65 0 c59
0 67 -3 82 -25z"/>
<path d="M2220 1584 c-17 -48 -34 -78 -57 -104 -13 -14 -23 -28 -23 -32 0 -7
-30 -37 -63 -65 -24 -20 -123 -70 -153 -78 -16 -4 -66 -8 -112 -10 -45 -1 -86
-6 -90 -10 -4 -4 40 -5 98 -3 92 4 113 8 167 36 85 42 127 75 177 141 42 55
82 138 72 149 -3 2 -10 -8 -16 -24z"/>
<path d="M1410 1510 c6 -11 12 -20 14 -20 2 0 2 9 -1 20 -3 11 -9 20 -15 20
-5 0 -4 -9 2 -20z"/>
<path d="M1448 1453 c38 -53 132 -127 132 -105 0 6 -9 14 -21 17 -24 8 -109
89 -109 104 0 6 -5 11 -11 11 -6 0 -1 -12 9 -27z"/>
<path d="M1596 1331 c15 -14 104 -44 110 -38 4 3 -6 9 -22 13 -15 4 -39 13
-53 20 -30 16 -50 19 -35 5z"/>
</g>
</svg>
